<svg width="260" height="260" viewBox="0 0 260 260" fill="none" xmlns="http://www.w3.org/2000/svg">
<rect width="260" height="260" fill="white"/>
<rect x="40" y="40" width="180" height="180" rx="40" fill="#E7FF9D"/>
<path d="M66.1181 148V120.304C66.1181 117.808 66.8381 115.824 68.2781 114.352C69.7501 112.848 71.8301 112.096 74.5181 112.096C75.5101 112.096 76.4541 112.224 77.3501 112.48C78.2781 112.704 79.0621 113.072 79.7021 113.584L78.3101 117.088C77.8301 116.704 77.2861 116.416 76.6781 116.224C76.0701 116 75.4301 115.888 74.7581 115.888C73.4141 115.888 72.3901 116.272 71.6861 117.04C70.9821 117.776 70.6301 118.88 70.6301 120.352V123.76L70.7261 125.872V148H66.1181ZM61.7981 126.352V122.56H78.0221V126.352H61.7981ZM82.3901 148V112.384H86.9981V148H82.3901ZM106.67 148.288C104.11 148.288 101.838 147.728 99.8543 146.608C97.8703 145.488 96.3023 143.952 95.1503 142C93.9983 140.016 93.4223 137.776 93.4223 135.28C93.4223 132.752 93.9983 130.512 95.1503 128.56C96.3023 126.608 97.8703 125.088 99.8543 124C101.838 122.88 104.11 122.32 106.67 122.32C109.198 122.32 111.454 122.88 113.438 124C115.454 125.088 117.022 126.608 118.142 128.56C119.294 130.48 119.87 132.72 119.87 135.28C119.87 137.808 119.294 140.048 118.142 142C117.022 143.952 115.454 145.488 113.438 146.608C111.454 147.728 109.198 148.288 106.67 148.288ZM106.67 144.256C108.302 144.256 109.758 143.888 111.038 143.152C112.35 142.416 113.374 141.376 114.11 140.032C114.846 138.656 115.214 137.072 115.214 135.28C115.214 133.456 114.846 131.888 114.11 130.576C113.374 129.232 112.35 128.192 111.038 127.456C109.758 126.72 108.302 126.352 106.67 126.352C105.038 126.352 103.582 126.72 102.302 127.456C101.022 128.192 99.9983 129.232 99.2303 130.576C98.4623 131.888 98.0783 133.456 98.0783 135.28C98.0783 137.072 98.4623 138.656 99.2303 140.032C99.9983 141.376 101.022 142.416 102.302 143.152C103.582 143.888 105.038 144.256 106.67 144.256ZM132.212 148L121.076 122.56H125.876L135.764 145.6H133.46L143.54 122.56H148.052L136.916 148H132.212ZM167.348 148V142.624L167.108 141.616V132.448C167.108 130.496 166.532 128.992 165.38 127.936C164.26 126.848 162.564 126.304 160.292 126.304C158.788 126.304 157.316 126.56 155.876 127.072C154.436 127.552 153.22 128.208 152.228 129.04L150.308 125.584C151.62 124.528 153.188 123.728 155.012 123.184C156.868 122.608 158.804 122.32 160.82 122.32C164.308 122.32 166.996 123.168 168.884 124.864C170.772 126.56 171.716 129.152 171.716 132.64V148H167.348ZM158.996 148.288C157.108 148.288 155.444 147.968 154.004 147.328C152.596 146.688 151.508 145.808 150.74 144.688C149.972 143.536 149.588 142.24 149.588 140.8C149.588 139.424 149.908 138.176 150.548 137.056C151.22 135.936 152.292 135.04 153.764 134.368C155.268 133.696 157.284 133.36 159.812 133.36H167.876V136.672H160.004C157.7 136.672 156.148 137.056 155.348 137.824C154.548 138.592 154.148 139.52 154.148 140.608C154.148 141.856 154.644 142.864 155.636 143.632C156.628 144.368 158.004 144.736 159.764 144.736C161.492 144.736 162.996 144.352 164.276 143.584C165.588 142.816 166.532 141.696 167.108 140.224L168.02 143.392C167.412 144.896 166.34 146.096 164.804 146.992C163.268 147.856 161.332 148.288 158.996 148.288ZM187.539 148.288C185.427 148.288 183.411 148 181.491 147.424C179.603 146.848 178.115 146.144 177.027 145.312L178.947 141.664C180.035 142.4 181.379 143.024 182.979 143.536C184.579 144.048 186.211 144.304 187.875 144.304C190.019 144.304 191.555 144 192.483 143.392C193.443 142.784 193.923 141.936 193.923 140.848C193.923 140.048 193.635 139.424 193.059 138.976C192.483 138.528 191.715 138.192 190.755 137.968C189.827 137.744 188.787 137.552 187.635 137.392C186.483 137.2 185.331 136.976 184.179 136.72C183.027 136.432 181.971 136.048 181.011 135.568C180.051 135.056 179.283 134.368 178.707 133.504C178.131 132.608 177.843 131.424 177.843 129.952C177.843 128.416 178.275 127.072 179.139 125.92C180.003 124.768 181.219 123.888 182.787 123.28C184.387 122.64 186.275 122.32 188.451 122.32C190.115 122.32 191.795 122.528 193.491 122.944C195.219 123.328 196.627 123.888 197.715 124.624L195.747 128.272C194.595 127.504 193.395 126.976 192.147 126.688C190.899 126.4 189.651 126.256 188.403 126.256C186.387 126.256 184.883 126.592 183.891 127.264C182.899 127.904 182.403 128.736 182.403 129.76C182.403 130.624 182.691 131.296 183.267 131.776C183.875 132.224 184.643 132.576 185.571 132.832C186.531 133.088 187.587 133.312 188.739 133.504C189.891 133.664 191.043 133.888 192.195 134.176C193.347 134.432 194.387 134.8 195.315 135.28C196.275 135.76 197.043 136.432 197.619 137.296C198.227 138.16 198.531 139.312 198.531 140.752C198.531 142.288 198.083 143.616 197.187 144.736C196.291 145.856 195.027 146.736 193.395 147.376C191.763 147.984 189.811 148.288 187.539 148.288Z" fill="black"/>
</svg>
