<svg width="180" height="180" viewBox="0 0 180 180" fill="none" xmlns="http://www.w3.org/2000/svg">
<rect width="180" height="180" fill="white"/>
<rect x="25" y="25" width="130" height="130" rx="30" fill="#E7FF9D"/>
<path d="M42.2136 103V82.228C42.2136 80.356 42.7536 78.868 43.8336 77.764C44.9376 76.636 46.4976 76.072 48.5136 76.072C49.2576 76.072 49.9656 76.168 50.6376 76.36C51.3336 76.528 51.9216 76.804 52.4016 77.188L51.3576 79.816C50.9976 79.528 50.5896 79.312 50.1336 79.168C49.6776 79 49.1976 78.916 48.6936 78.916C47.6856 78.916 46.9176 79.204 46.3896 79.78C45.8616 80.332 45.5976 81.16 45.5976 82.264V84.82L45.6696 86.404V103H42.2136ZM38.9736 86.764V83.92H51.1416V86.764H38.9736ZM54.4176 103V76.288H57.8736V103H54.4176ZM72.6277 103.216C70.7077 103.216 69.0037 102.796 67.5157 101.956C66.0277 101.116 64.8517 99.964 63.9877 98.5C63.1237 97.012 62.6917 95.332 62.6917 93.46C62.6917 91.564 63.1237 89.884 63.9877 88.42C64.8517 86.956 66.0277 85.816 67.5157 85C69.0037 84.16 70.7077 83.74 72.6277 83.74C74.5237 83.74 76.2157 84.16 77.7037 85C79.2157 85.816 80.3917 86.956 81.2317 88.42C82.0957 89.86 82.5277 91.54 82.5277 93.46C82.5277 95.356 82.0957 97.036 81.2317 98.5C80.3917 99.964 79.2157 101.116 77.7037 101.956C76.2157 102.796 74.5237 103.216 72.6277 103.216ZM72.6277 100.192C73.8517 100.192 74.9437 99.916 75.9037 99.364C76.8877 98.812 77.6557 98.032 78.2077 97.024C78.7597 95.992 79.0357 94.804 79.0357 93.46C79.0357 92.092 78.7597 90.916 78.2077 89.932C77.6557 88.924 76.8877 88.144 75.9037 87.592C74.9437 87.04 73.8517 86.764 72.6277 86.764C71.4037 86.764 70.3117 87.04 69.3517 87.592C68.3917 88.144 67.6237 88.924 67.0477 89.932C66.4717 90.916 66.1837 92.092 66.1837 93.46C66.1837 94.804 66.4717 95.992 67.0477 97.024C67.6237 98.032 68.3917 98.812 69.3517 99.364C70.3117 99.916 71.4037 100.192 72.6277 100.192ZM91.7839 103L83.4319 83.92H87.0319L94.4479 101.2H92.7199L100.28 83.92H103.664L95.3119 103H91.7839ZM118.136 103V98.968L117.956 98.212V91.336C117.956 89.872 117.524 88.744 116.66 87.952C115.82 87.136 114.548 86.728 112.844 86.728C111.716 86.728 110.612 86.92 109.532 87.304C108.452 87.664 107.54 88.156 106.796 88.78L105.356 86.188C106.34 85.396 107.516 84.796 108.884 84.388C110.276 83.956 111.728 83.74 113.24 83.74C115.856 83.74 117.872 84.376 119.288 85.648C120.704 86.92 121.412 88.864 121.412 91.48V103H118.136ZM111.872 103.216C110.456 103.216 109.208 102.976 108.128 102.496C107.072 102.016 106.256 101.356 105.68 100.516C105.104 99.652 104.816 98.68 104.816 97.6C104.816 96.568 105.056 95.632 105.536 94.792C106.04 93.952 106.844 93.28 107.948 92.776C109.076 92.272 110.588 92.02 112.484 92.02H118.532V94.504H112.628C110.9 94.504 109.736 94.792 109.136 95.368C108.536 95.944 108.236 96.64 108.236 97.456C108.236 98.392 108.608 99.148 109.352 99.724C110.096 100.276 111.128 100.552 112.448 100.552C113.744 100.552 114.872 100.264 115.832 99.688C116.816 99.112 117.524 98.272 117.956 97.168L118.64 99.544C118.184 100.672 117.38 101.572 116.228 102.244C115.076 102.892 113.624 103.216 111.872 103.216ZM133.279 103.216C131.695 103.216 130.183 103 128.743 102.568C127.327 102.136 126.211 101.608 125.395 100.984L126.835 98.248C127.651 98.8 128.659 99.268 129.859 99.652C131.059 100.036 132.283 100.228 133.531 100.228C135.139 100.228 136.291 100 136.987 99.544C137.707 99.088 138.067 98.452 138.067 97.636C138.067 97.036 137.851 96.568 137.419 96.232C136.987 95.896 136.411 95.644 135.691 95.476C134.995 95.308 134.215 95.164 133.351 95.044C132.487 94.9 131.623 94.732 130.759 94.54C129.895 94.324 129.103 94.036 128.383 93.676C127.663 93.292 127.087 92.776 126.655 92.128C126.223 91.456 126.007 90.568 126.007 89.464C126.007 88.312 126.331 87.304 126.979 86.44C127.627 85.576 128.539 84.916 129.715 84.46C130.915 83.98 132.331 83.74 133.963 83.74C135.211 83.74 136.471 83.896 137.743 84.208C139.039 84.496 140.095 84.916 140.911 85.468L139.435 88.204C138.571 87.628 137.671 87.232 136.735 87.016C135.799 86.8 134.863 86.692 133.927 86.692C132.415 86.692 131.287 86.944 130.543 87.448C129.799 87.928 129.427 88.552 129.427 89.32C129.427 89.968 129.643 90.472 130.075 90.832C130.531 91.168 131.107 91.432 131.803 91.624C132.523 91.816 133.315 91.984 134.179 92.128C135.043 92.248 135.907 92.416 136.771 92.632C137.635 92.824 138.415 93.1 139.111 93.46C139.831 93.82 140.407 94.324 140.839 94.972C141.295 95.62 141.523 96.484 141.523 97.564C141.523 98.716 141.187 99.712 140.515 100.552C139.843 101.392 138.895 102.052 137.671 102.532C136.447 102.988 134.983 103.216 133.279 103.216Z" fill="black"/>
</svg>
