<svg width="260" height="260" viewBox="0 0 260 260" fill="none" xmlns="http://www.w3.org/2000/svg">
<g clip-path="url(#clip0_935_433)">
<rect width="260" height="260" rx="40" fill="#E7FF9D"/>
<path d="M44.1575 153V116.072C44.1575 112.744 45.1175 110.099 47.0375 108.136C49.0002 106.131 51.7735 105.128 55.3575 105.128C56.6802 105.128 57.9388 105.299 59.1335 105.64C60.3708 105.939 61.4162 106.429 62.2695 107.112L60.4135 111.784C59.7735 111.272 59.0482 110.888 58.2375 110.632C57.4268 110.333 56.5735 110.184 55.6775 110.184C53.8855 110.184 52.5202 110.696 51.5815 111.72C50.6428 112.701 50.1735 114.173 50.1735 116.136V120.68L50.3015 123.496V153H44.1575ZM38.3975 124.136V119.08H60.0295V124.136H38.3975ZM65.8535 153V105.512H71.9975V153H65.8535ZM98.227 153.384C94.8137 153.384 91.7843 152.637 89.139 151.144C86.4937 149.651 84.403 147.603 82.867 145C81.331 142.355 80.563 139.368 80.563 136.04C80.563 132.669 81.331 129.683 82.867 127.08C84.403 124.477 86.4937 122.451 89.139 121C91.7843 119.507 94.8137 118.76 98.227 118.76C101.598 118.76 104.606 119.507 107.251 121C109.939 122.451 112.03 124.477 113.523 127.08C115.059 129.64 115.827 132.627 115.827 136.04C115.827 139.411 115.059 142.397 113.523 145C112.03 147.603 109.939 149.651 107.251 151.144C104.606 152.637 101.598 153.384 98.227 153.384ZM98.227 148.008C100.403 148.008 102.344 147.517 104.051 146.536C105.8 145.555 107.166 144.168 108.147 142.376C109.128 140.541 109.619 138.429 109.619 136.04C109.619 133.608 109.128 131.517 108.147 129.768C107.166 127.976 105.8 126.589 104.051 125.608C102.344 124.627 100.403 124.136 98.227 124.136C96.051 124.136 94.1097 124.627 92.403 125.608C90.6963 126.589 89.331 127.976 88.307 129.768C87.283 131.517 86.771 133.608 86.771 136.04C86.771 138.429 87.283 140.541 88.307 142.376C89.331 144.168 90.6963 145.555 92.403 146.536C94.1097 147.517 96.051 148.008 98.227 148.008ZM132.283 153L117.434 119.08H123.835L137.019 149.8H133.947L147.387 119.08H153.403L138.555 153H132.283ZM179.13 153V145.832L178.81 144.488V132.264C178.81 129.661 178.042 127.656 176.506 126.248C175.013 124.797 172.751 124.072 169.722 124.072C167.717 124.072 165.754 124.413 163.834 125.096C161.914 125.736 160.293 126.611 158.97 127.72L156.41 123.112C158.159 121.704 160.25 120.637 162.682 119.912C165.157 119.144 167.738 118.76 170.426 118.76C175.077 118.76 178.661 119.891 181.178 122.152C183.695 124.413 184.954 127.869 184.954 132.52V153H179.13ZM167.994 153.384C165.477 153.384 163.258 152.957 161.338 152.104C159.461 151.251 158.01 150.077 156.986 148.584C155.962 147.048 155.45 145.32 155.45 143.4C155.45 141.565 155.877 139.901 156.73 138.408C157.626 136.915 159.055 135.72 161.018 134.824C163.023 133.928 165.711 133.48 169.082 133.48H179.834V137.896H169.338C166.266 137.896 164.197 138.408 163.13 139.432C162.063 140.456 161.53 141.693 161.53 143.144C161.53 144.808 162.191 146.152 163.514 147.176C164.837 148.157 166.671 148.648 169.018 148.648C171.322 148.648 173.327 148.136 175.034 147.112C176.783 146.088 178.042 144.595 178.81 142.632L180.026 146.856C179.215 148.861 177.786 150.461 175.738 151.656C173.69 152.808 171.109 153.384 167.994 153.384ZM206.052 153.384C203.236 153.384 200.548 153 197.988 152.232C195.471 151.464 193.487 150.525 192.036 149.416L194.596 144.552C196.047 145.533 197.839 146.365 199.972 147.048C202.105 147.731 204.281 148.072 206.5 148.072C209.359 148.072 211.407 147.667 212.644 146.856C213.924 146.045 214.564 144.915 214.564 143.464C214.564 142.397 214.18 141.565 213.412 140.968C212.644 140.371 211.62 139.923 210.34 139.624C209.103 139.325 207.716 139.069 206.18 138.856C204.644 138.6 203.108 138.301 201.572 137.96C200.036 137.576 198.628 137.064 197.348 136.424C196.068 135.741 195.044 134.824 194.276 133.672C193.508 132.477 193.124 130.899 193.124 128.936C193.124 126.888 193.7 125.096 194.852 123.56C196.004 122.024 197.625 120.851 199.716 120.04C201.849 119.187 204.367 118.76 207.268 118.76C209.487 118.76 211.727 119.037 213.988 119.592C216.292 120.104 218.169 120.851 219.62 121.832L216.996 126.696C215.46 125.672 213.86 124.968 212.196 124.584C210.532 124.2 208.868 124.008 207.204 124.008C204.516 124.008 202.511 124.456 201.188 125.352C199.865 126.205 199.204 127.315 199.204 128.68C199.204 129.832 199.588 130.728 200.356 131.368C201.167 131.965 202.191 132.435 203.428 132.776C204.708 133.117 206.116 133.416 207.652 133.672C209.188 133.885 210.724 134.184 212.26 134.568C213.796 134.909 215.183 135.4 216.42 136.04C217.7 136.68 218.724 137.576 219.492 138.728C220.303 139.88 220.708 141.416 220.708 143.336C220.708 145.384 220.111 147.155 218.916 148.648C217.721 150.141 216.036 151.315 213.86 152.168C211.684 152.979 209.081 153.384 206.052 153.384Z" fill="black"/>
</g>
<defs>
<clipPath id="clip0_935_433">
<rect width="260" height="260" fill="white"/>
</clipPath>
</defs>
</svg>
